PathFileType	4	(X/Y/Z)	60_2_58_p1_0-329_filt_butterworth.trc
DataRate	CameraRate	NumFrames	NumMarkers	Units	OrigDataRate	OrigDataStartFrame	OrigNumFrames
60.0	60.0	5	27	m	60.0	0	329
Frame#	Time	RHip			RKnee			RAnkle			RBigToe			RSmallToe			RHeel			LHip			LKnee			LAnkle			LBigToe			LSmallToe			LHeel			Neck			Head			Nose			RShoulder			RElbow			RWrist			RThumb			RIndex			RPinky			LShoulder			LElbow			LWrist			LThumb			LIndex			LPinky			
		X1	Y1	Z1	X2	Y2	Z2	X3	Y3	Z3	X4	Y4	Z4	X5	Y5	Z5	X6	Y6	Z6	X7	Y7	Z7	X8	Y8	Z8	X9	Y9	Z9	X10	Y10	Z10	X11	Y11	Z11	X12	Y12	Z12	X13	Y13	Z13	X14	Y14	Z14	X15	Y15	Z15	X16	Y16	Z16	X17	Y17	Z17	X18	Y18	Z18	X19	Y19	Z19	X20	Y20	Z20	X21	Y21	Z21	X22	Y22	Z22	X23	Y23	Z23	X24	Y24	Z24	X25	Y25	Z25	X26	Y26	Z26	X27	Y27	Z27	
0	0.0	0.3348447673132366	0.5516241114056153	0.7851304415223217	0.32379768638136325	0.13249551817567556	0.7594060632215626	0.29956970925998794	-0.2917242532570109	0.8045092741268766	0.2908987071394862	-0.3439324153580334	0.5857674746747036	0.3581768780581697	-0.3456797815825059	0.6365000012626526	0.27852516099512836	-0.34762368784559194	0.850760414893109	0.11407979888840085	0.5474761628958631	0.7854234172747784	0.12533645756107953	0.13366145343782793	0.7591794713198168	0.13024547916900983	-0.2685111946391311	0.7548534777865495	0.13047129656388576	-0.31966050352928194	0.5604301592957937	0.07046785563064442	-0.3148244793906514	0.6035177829844574	0.14629460096364746	-0.34150140926827083	0.8199966115546207	0.2322909962218665	1.1394371439804796	0.7937381917943575	0.24892211417122578	1.3949229639446843	0.7639515697546021	0.2377007159926211	1.276851541222849	0.676955374884816	0.39340960957286975	1.0581628147373472	0.7880382811908848	0.4339952753764967	0.7940165117160964	0.7582644460760697	0.2682498191922712	0.687027029802863	0.5410209383706532	0.18488050617518403	0.6036800423143631	0.5148455304465314	0.18093531548939745	0.6015779039915535	0.5025410690903247	0.20104923518953757	0.5697083361407462	0.5487559916036073	0.07841650759041083	1.0592342311380438	0.7825155776062152	0.010926489830453535	0.7832037420855482	0.7724470601816775	0.15656668898720985	0.674626670934491	0.5579450094966718	0.21236414775566045	0.6119862233127095	0.5399130745990013	0.21708504608245227	0.5934883965886855	0.5255246587069011	0.1840314032083292	0.5997218364462411	0.508262955071751	
1	0.0166666666666666	0.33499690060819437	0.5516621408690773	0.7840903839509958	0.3229125490155516	0.13400898446545795	0.756585767570882	0.3005984341967872	-0.2922041183631984	0.8048549345768965	0.2899443469304712	-0.33966613935722334	0.5810463173835482	0.3592579874237565	-0.3378024956379525	0.6261883535765734	0.278991759824612	-0.34873902149851854	0.8510039124657264	0.11311704664415273	0.5486544003841708	0.7850571459809634	0.12532513015879057	0.133580047760037	0.7591097608459287	0.1307456473939172	-0.26975750456024944	0.7568878364359023	0.12821295683067074	-0.3171679144380182	0.5602524026384242	0.07029244816432825	-0.31335273508713396	0.6043070278409164	0.14629178286550187	-0.34118501895961334	0.8197818782294286	0.2301721874697856	1.1403479714485276	0.79989948889741	0.24892288862049045	1.39493990169635	0.7639699464882197	0.23503496351481926	1.2770917293447988	0.6744277863047684	0.39341596188317124	1.0581801367164878	0.7879327004892188	0.4324088929038144	0.791952734870448	0.7649656225230446	0.2682830382844638	0.6864745518260063	0.5413730747473511	0.18343941768456573	0.6049888434150481	0.515120771841352	0.18253178346393412	0.5968100562588272	0.507742117937689	0.20119808186637853	0.5694005604952437	0.5485733948772527	0.07846299615961207	1.0592531615120537	0.7825261433355563	0.011227569317830536	0.7829671655517565	0.7716029209098003	0.15901752567326558	0.6765391584385483	0.5520848479407037	0.21191317221748526	0.6129930589224227	0.5393282537796713	0.21928257718007824	0.5942719553486148	0.5268709171555808	0.18365350052758853	0.6010689539184432	0.5071234856119846	
2	0.0333333333333333	0.3350970672953813	0.551662271849361	0.7833350339008447	0.3221593885396611	0.13528707609846258	0.7541959426390547	0.3013722360452615	-0.2925882540332576	0.8051158052609555	0.289039544778908	-0.3370446258701407	0.5775043804394422	0.3599564061668274	-0.33292078759713045	0.6195525125467619	0.2793943276779561	-0.3495886750091149	0.851157691375806	0.11232319661751539	0.5495243990230079	0.7848103712483421	0.12531501677935533	0.13343585031348865	0.7590274913720378	0.13121208732609402	-0.2709269046059818	0.7587891613350591	0.126864199300144	-0.3151480413631351	0.5602188619650226	0.07017861949280425	-0.3122397777474013	0.6048464917446031	0.14629398808670915	-0.34091632343397815	0.8196071902835306	0.2287190547560125	1.1408687082306799	0.8041320522840743	0.24891961829233944	1.3949529533457776	0.7639724543102531	0.23348722539979425	1.277151780055989	0.673449573376564	0.39340956089024876	1.0581863373927107	0.7878797120526876	0.4313993208775843	0.790657661746879	0.7692523172551858	0.26824475786018753	0.686427959909977	0.5414115760224971	0.1822736199867323	0.6061052171865975	0.5150537798380876	0.18354913229047937	0.5939453307764279	0.5111148997976744	0.20132112550250003	0.5691760032921181	0.5484783143239294	0.07849360620397654	1.0592627895839086	0.7825387781855422	0.011752877777989479	0.7833655274919464	0.7702449499134512	0.16103662962470075	0.677824365709945	0.5484464276351123	0.21205859670353472	0.6133140656158682	0.5391183227483803	0.22071766880947533	0.5944361555482864	0.5276298105352447	0.18342621267959544	0.6016086274230898	0.506556897736742	
3	0.05	0.33515212170492026	0.5516295730292096	0.7828318353264074	0.321528549504125	0.13634733593824244	0.7522046649037286	0.3019163483331053	-0.29288500889344243	0.8053001729117591	0.28821489043179516	-0.33571828606259424	0.5749744211242833	0.3603189776559073	-0.3304102562494382	0.6158375398985544	0.279737099545094	-0.3501970816903568	0.851232813765041	0.11168516666611678	0.5501167040074575	0.7846637704119048	0.12530587016076533	0.13323771492633557	0.7589346055724798	0.13164526166366752	-0.2720201367925945	0.7605593672454776	0.1262420549175414	-0.31357444079235763	0.5602856317380216	0.07011582218717488	-0.31143982720218777	0.6051793765940761	0.14630066071095385	-0.34069205228925026	0.8194694820962759	0.22785669374623818	1.1411029100772152	0.8066458754277652	0.24891390823479662	1.3949624686734412	0.7639638184150541	0.23286380169422477	1.2770778725525942	0.6736588519408138	0.3933957566688963	1.0581858600555973	0.7878661328338878	0.4308556620312847	0.7899785886520277	0.7715877404421303	0.2681842777085499	0.6866704469932237	0.5413174971115066	0.18137539507262868	0.6070206424931086	0.5146677144341013	0.18407876692979921	0.592648704677704	0.5129356987068379	0.20142172390995414	0.5690169692316811	0.5484528365476335	0.07851128600476431	1.0592653407083006	0.7825524249313474	0.01243039236811875	0.7842420455643838	0.7685420462069821	0.16265195756359804	0.6785774351909777	0.5465958629819516	0.21264397795034976	0.6131140437760085	0.5391971994615753	0.22150176381260372	0.5941830930141182	0.5278350166448134	0.18334929144367024	0.6014582445333432	0.5065336779501677	
4	0.0666666666666666	0.33516891816693395	0.5515691130913664	0.7825482321822228	0.32101037645937675	0.13720730684835095	0.7505800108425521	0.30225600458801355	-0.29310273157000666	0.8054163242620127	0.2875009736361313	-0.33533753110039255	0.5732891967199684	0.36039254525952125	-0.32964650038427434	0.6142884973572882	0.2800243104159591	-0.35058867485522094	0.851240341775125	0.11118987464758484	0.5504618605326037	0.7845980208066428	0.12529744304101215	0.13299449542673059	0.75883304612159	0.132045633104765	-0.2730379431363538	0.7622003689286152	0.1261635546280988	-0.3124206692134107	0.5604088064198539	0.07009350881854254	-0.31090710328222804	0.6053488842878934	0.14631124482192046	-0.3405089351233144	0.8193656880470136	0.2275102001061535	1.1411541327384143	0.8076509518018984	0.24890736349588582	1.3949687974598164	0.7639487639969748	0.2329709924447896	1.2769161860307894	0.6746937378381295	0.39337989929390793	1.058183147994731	0.7878787797854168	0.4306670190983942	0.7897628118925327	0.7724351022535151	0.2681508976186584	0.6869852060141945	0.5412718929297946	0.1807370249331997	0.6077265981986785	0.513985735626756	0.18421209234265962	0.5925851550960037	0.513480798701736	0.20150323490079292	0.5689057630142441	0.5484790481523607	0.07851898384323548	1.0592630402399221	0.7825660263481466	0.01318809024540674	0.7854399374273348	0.7666631088047453	0.16389146621204012	0.6788935093239433	0.5460992683832759	0.21351287269447125	0.6125577937858058	0.5394788018757036	0.2217463050314235	0.5937148635725276	0.5275202132832068	0.1834224885991333	0.6007351928223649	0.5070243127564065	
